<?xml version="1.0" encoding="UTF-8" standalone="no"?>
<svg width="195px" height="47px" viewBox="0 0 195 47" version="1.1" xmlns="http://www.w3.org/2000/svg" xmlns:xlink="http://www.w3.org/1999/xlink" xmlns:sketch="http://www.bohemiancoding.com/sketch/ns">
    <!-- Generator: Sketch 3.4.4 (17249) - http://www.bohemiancoding.com/sketch -->
    <title>hir + uko</title>
    <desc>Created with Sketch.</desc>
    <defs></defs>
    <g id="Page-1" stroke="none" stroke-width="1" fill="none" fill-rule="evenodd" sketch:type="MSPage">
        <g id="logo" sketch:type="MSLayerGroup">
            <g id="Page-1" sketch:type="MSShapeGroup">
                <g id="hir-+-uko">
                    <path d="M1.31770412,0.716248989 L10.8633791,0.716248989 L10.8633791,19.1673403 L11.0379951,19.1673403 C11.5812477,18.6240878 12.2069488,18.1147962 12.9151172,17.6394503 C13.6232857,17.1641043 14.3653963,16.7518207 15.1414713,16.4025869 C15.9175463,16.0533531 16.7227121,15.781731 17.5569927,15.5877122 C18.3912734,15.3936935 19.2643447,15.2966855 20.1762328,15.2966855 C21.7865885,15.2966855 23.2417073,15.5198038 24.541633,15.9660469 C25.8415586,16.41229 26.947449,17.0913455 27.8593371,18.0032336 C28.7712253,18.9151218 29.4745327,20.0840672 29.9692805,21.5101051 C30.4640283,22.9361429 30.7113985,24.6192304 30.7113985,26.5594179 L30.7113985,40.9943411 L35.2514147,40.9943411 L35.2514147,46 L20.9329022,46 L20.9329022,40.9943411 L25.065481,40.9943411 L25.065481,27.2287793 C25.065481,24.9199561 24.4785831,23.1689631 23.3047696,21.9757478 C22.1309561,20.7825324 20.4478687,20.1859337 18.2554568,20.1859337 C17.0137367,20.1859337 15.7526337,20.4818079 14.4721099,21.0735651 C13.1915862,21.6653223 11.9886879,22.4074329 10.8633791,23.2999192 L10.8633791,40.9943411 L15.2287793,40.9943411 L15.2287793,46 L0.910266774,46 L0.910266774,40.9943411 L5.45028294,40.9943411 L5.45028294,5.72190784 L1.31770412,5.72190784 L1.31770412,0.716248989 Z M40.0824576,15.8496362 L49.9191593,15.8496362 L49.9191593,40.9943411 L54.4591754,40.9943411 L54.4591754,46 L40.1406629,46 L40.1406629,40.9943411 L44.4478577,40.9943411 L44.4478577,20.8552951 L40.0824576,20.8552951 L40.0824576,15.8496362 Z M43.4292643,5.16895715 C43.4292643,4.66450839 43.5311227,4.18431918 43.7348424,3.7283751 C43.9385621,3.27243103 44.2101842,2.87469854 44.5497171,2.53516572 C44.8892499,2.1956329 45.2918328,1.92401072 45.7574778,1.72029103 C46.2231228,1.51657133 46.7178632,1.41471302 47.2417138,1.41471302 C47.7461626,1.41471302 48.2263518,1.51657133 48.6822959,1.72029103 C49.13824,1.92401072 49.5359724,2.1956329 49.8755053,2.53516572 C50.2150381,2.87469854 50.4866603,3.27243103 50.69038,3.7283751 C50.8940996,4.18431918 50.995958,4.66450839 50.995958,5.16895715 C50.995958,5.69280779 50.8940996,6.1875482 50.69038,6.65319321 C50.4866603,7.11883822 50.2150381,7.53112189 49.8755053,7.89005659 C49.5359724,8.24899129 49.13824,8.53031426 48.6822959,8.73403395 C48.2263518,8.93775365 47.7461626,9.03961196 47.2417138,9.03961196 C46.7178632,9.03961196 46.2231228,8.93775365 45.7574778,8.73403395 C45.2918328,8.53031426 44.8892499,8.24899129 44.5497171,7.89005659 C44.2101842,7.53112189 43.9385621,7.11883822 43.7348424,6.65319321 C43.5311227,6.1875482 43.4292643,5.69280779 43.4292643,5.16895715 L43.4292643,5.16895715 Z M81.1172191,22.2231205 L75.5877122,22.2231205 L75.5877122,20.3605497 C74.9474503,20.3605497 74.2926468,20.4818096 73.6232821,20.7243331 C72.9539174,20.9668565 72.3282163,21.3354866 71.7461601,21.8302344 C71.1641038,22.3249823 70.6548122,22.9555338 70.21827,23.7219078 C69.7817278,24.4882819 69.4664521,25.395306 69.2724333,26.4430073 L69.2724333,40.9943411 L74.3945028,40.9943411 L74.3945028,46 L59.4357316,46 L59.4357316,40.9943411 L63.5974131,40.9943411 L63.6265158,20.8552951 L59.4357316,20.8552951 L59.4357316,15.8496362 L69.0687146,15.8496362 L69.0687146,20.0113177 C69.4179484,19.3904577 69.8108305,18.8132605 70.2473727,18.279709 C70.6839149,17.7461574 71.1689545,17.2805194 71.7025061,16.8827809 C72.2360576,16.4850425 72.827806,16.1746171 73.4777688,15.9514956 C74.1277316,15.728374 74.8310391,15.6168149 75.5877122,15.6168149 L78.4397736,15.6168149 C79.3322599,15.6168149 80.2247328,15.6362165 81.1172191,15.6750202 L81.1172191,22.2231205 Z" id="hir" fill="#C61951"></path>
                    <path d="M106.070331,15.8496362 L115.790622,15.8496362 L115.790622,40.9943411 L119.137429,40.9943411 L119.137429,46 L110.348424,46 L110.348424,43.2061439 C108.990292,44.2538452 107.510922,45.0687117 105.910267,45.650768 C104.309612,46.2328243 102.597422,46.523848 100.773646,46.523848 C99.2602996,46.523848 97.8876375,46.3055802 96.6556184,45.869038 C95.4235993,45.4324958 94.3759138,44.7534403 93.5125303,43.8318513 C92.6491469,42.9102622 91.9846426,41.7413167 91.5189976,40.3249798 C91.0533526,38.9086429 90.8205335,37.220705 90.8205335,35.2611156 L90.8205335,20.8552951 L86.7461601,20.8552951 L86.7461601,15.8496362 L96.4664511,15.8496362 L96.4664511,34.6208569 C96.4664511,36.9296801 96.9999947,38.6758227 98.0670978,39.8593371 C99.134201,41.0428515 100.666926,41.6345998 102.665319,41.6345998 C103.848834,41.6345998 105.095386,41.4211824 106.405012,40.9943411 C107.714639,40.5674999 108.95149,39.9757516 110.115602,39.2190784 L110.115602,20.8552951 L106.070331,20.8552951 L106.070331,15.8496362 Z M126.966047,0.716248989 L137.588521,0.716248989 L137.588521,5.72190784 L137.530315,5.72190784 L137.530315,28.2473727 L142.768795,28.2473727 L149.928052,20.8552951 L148.123686,20.8552951 L148.123686,15.8496362 L159.561035,15.8496362 L159.561035,20.8552951 L155.748585,20.8552951 L146.581245,30.3136621 L156.592563,40.9943411 L160.230396,40.9943411 L160.230396,46 L153.856912,46 L141.517381,32.5254648 L137.530315,32.5254648 L137.530315,40.9943411 L140.033145,40.9943411 L140.033145,46 L127.140663,46 L127.140663,40.9943411 L132.088116,40.9943411 L132.088116,5.72190784 L126.966047,5.72190784 L126.966047,0.716248989 Z M164.217462,30.9248181 C164.236863,28.5383874 164.620045,26.36541 165.367017,24.4058205 C166.113989,22.4462311 167.156824,20.7631437 168.495554,19.3565077 C169.834283,17.9498717 171.425213,16.8682334 173.268391,16.1115602 C175.111569,15.3548871 177.139035,14.9765562 179.350849,14.9765562 C181.582065,14.9765562 183.624081,15.3548871 185.47696,16.1115602 C187.329839,16.8682334 188.915919,17.9401709 190.235247,19.327405 C191.554574,20.7146391 192.582858,22.3880258 193.320129,24.3476152 C194.057401,26.3072046 194.426031,28.4801821 194.426031,30.8666128 C194.426031,33.2142397 194.057401,35.372666 193.320129,37.3419563 C192.582858,39.3112467 191.554574,41.004035 190.235247,42.4203719 C188.915919,43.8367088 187.329839,44.9377487 185.47696,45.7235247 C183.624081,46.5093006 181.582065,46.9021827 179.350849,46.9021827 C177.080829,46.9021827 175.024261,46.514151 173.181083,45.738076 C171.337905,44.962001 169.756676,43.8706618 168.437348,42.4640259 C167.118021,41.0573899 166.089737,39.3743024 165.352466,37.414713 C164.615194,35.4551236 164.236863,33.2918469 164.217462,30.9248181 L164.217462,30.9248181 Z M169.950687,30.9248181 C169.950687,32.651585 170.198057,34.2134126 170.692805,35.6103476 C171.187553,37.0072827 171.866608,38.1956297 172.729992,39.1754244 C173.593375,40.1552191 174.592557,40.9118809 175.727567,41.4454325 C176.862576,41.9789841 178.070325,42.2457559 179.350849,42.2457559 C180.689578,42.2457559 181.93613,41.9838345 183.090542,41.4599838 C184.244953,40.9361332 185.248985,40.1843218 186.102668,39.2045271 C186.95635,38.2247324 187.625705,37.0363853 188.110752,35.6394503 C188.595799,34.2425152 188.838319,32.6709869 188.838319,30.9248181 C188.838319,29.1010418 188.595799,27.4810095 188.110752,26.0646726 C187.625705,24.6483357 186.961201,23.464839 186.117219,22.5141471 C185.273237,21.5634552 184.269205,20.8455966 183.105093,20.3605497 C181.94098,19.8755028 180.689578,19.632983 179.350849,19.632983 C178.070325,19.632983 176.862576,19.8755028 175.727567,20.3605497 C174.592557,20.8455966 173.593375,21.5634552 172.729992,22.5141471 C171.866608,23.464839 171.187553,24.6483357 170.692805,26.0646726 C170.198057,27.4810095 169.950687,29.1010418 169.950687,30.9248181 L169.950687,30.9248181 Z" id="uko" fill="#56132A"></path>
                </g>
            </g>
        </g>
    </g>
</svg>